<?xml version="1.0" standalone="no"?><!DOCTYPE svg PUBLIC "-//W3C//DTD SVG 1.1//EN" "http://www.w3.org/Graphics/SVG/1.1/DTD/svg11.dtd"><svg t="1656043582377" class="icon" viewBox="0 0 1024 1024" version="1.1" xmlns="http://www.w3.org/2000/svg" p-id="10495" xmlns:xlink="http://www.w3.org/1999/xlink" width="200" height="200"><defs><style type="text/css">@font-face { font-family: feedback-iconfont; src: url("//at.alicdn.com/t/font_1031158_u69w8yhxdu.woff2?t=1630033759944") format("woff2"), url("//at.alicdn.com/t/font_1031158_u69w8yhxdu.woff?t=1630033759944") format("woff"), url("//at.alicdn.com/t/font_1031158_u69w8yhxdu.ttf?t=1630033759944") format("truetype"); }
</style></defs><path d="M512 512m-512 0a512 512 0 1 0 1024 0 512 512 0 1 0-1024 0Z" fill="#D3D1D1" p-id="10496"></path><path d="M258.4 842.4l-45.6 1.6 60-177.6 58.4 24.8z" fill="#AD5114" p-id="10497"></path><path d="M240.8 760h57.6l32.8-68.8-26.4-11.2h-36.8z" fill="#993F0D" p-id="10498"></path><path d="M212.8 852c-0.8 0-1.6 0-2.4-0.8-4-1.6-6.4-5.6-4.8-10.4L264.8 664c0.8-2.4 2.4-4 4-4.8 2.4-0.8 4-0.8 6.4 0l59.2 24.8c2.4 0.8 3.2 2.4 4 4.8 0.8 2.4 0.8 4 0 6.4l-72.8 151.2c-1.6 4-6.4 5.6-10.4 4-4-1.6-5.6-6.4-4-10.4l69.6-144-43.2-18.4-56.8 169.6c-0.8 2.4-4 4.8-8 4.8z" fill="#233E49" p-id="10499"></path><path d="M758.4 842.4l44.8 1.6L744 666.4l-59.2 24.8z" fill="#AD5114" p-id="10500"></path><path d="M775.2 760h-56.8l-33.6-68.8 26.4-11.2h37.6z" fill="#993F0D" p-id="10501"></path><path d="M803.2 852c-3.2 0-6.4-2.4-7.2-5.6l-56.8-169.6-43.2 18.4 69.6 144c1.6 4 0 8.8-4 10.4-4 1.6-8.8 0-10.4-4l-72.8-151.2c-0.8-1.6-0.8-4 0-6.4 0.8-2.4 2.4-4 4-4.8l59.2-24.8c2.4-0.8 4-0.8 6.4 0 2.4 0.8 3.2 2.4 4 4.8l59.2 177.6c1.6 4-0.8 8.8-4.8 10.4-1.6 0.8-2.4 0.8-3.2 0.8zM481.6 212.8c-2.4 0-4.8-0.8-6.4-3.2-3.2-3.2-2.4-8.8 0.8-11.2L641.6 60.8c3.2-3.2 8.8-2.4 11.2 0.8 3.2 3.2 2.4 8.8-0.8 11.2L487.2 211.2c-1.6 1.6-3.2 1.6-5.6 1.6zM390.4 212.8c-1.6 0-4-0.8-4.8-1.6L220.8 72.8c-3.2-3.2-4-8-0.8-11.2 3.2-3.2 8-4 11.2-0.8l164.8 138.4c3.2 3.2 4 8 0.8 11.2-1.6 1.6-4 2.4-6.4 2.4z" fill="#233E49" p-id="10502"></path><path d="M430.4 132.8c-19.2 0-34.4-15.2-34.4-34.4S411.2 64 430.4 64s34.4 15.2 34.4 34.4c0 18.4-15.2 34.4-34.4 34.4z m0-52.8c-10.4 0-18.4 8-18.4 18.4 0 10.4 8 18.4 18.4 18.4 10.4 0 18.4-8 18.4-18.4 0-10.4-8-18.4-18.4-18.4zM510.4 582.4c-19.2 0-34.4-15.2-34.4-34.4s15.2-34.4 34.4-34.4 34.4 15.2 34.4 34.4c0 18.4-15.2 34.4-34.4 34.4z m0-52.8c-10.4 0-18.4 8-18.4 18.4 0 10.4 8 18.4 18.4 18.4 10.4 0 18.4-8 18.4-18.4 0-10.4-8-18.4-18.4-18.4z" fill="#FFFFFF" p-id="10503"></path><path d="M880 664c0 35.2-28.8 64-64 64H192c-35.2 0-64-28.8-64-64V264c0-35.2 28.8-64 64-64h624c35.2 0 64 28.8 64 64v400z" fill="#415E6D" p-id="10504"></path><path d="M880 664c0 35.2-28.8 64-64 64H192c-35.2 0-64-28.8-64-64V264c0-35.2 28.8-64 64-64h624c35.2 0 64 28.8 64 64v400z" fill="#415E6D" p-id="10505"></path><path d="M772.8 489.6m-41.6 0a41.6 41.6 0 1 0 83.2 0 41.6 41.6 0 1 0-83.2 0Z" opacity=".2" p-id="10506"></path><path d="M872 680H160c-13.6 0-24 10.4-24 24s10.4 24 24 24h672c13.6 0 53.6-48 40-48z" fill="#324D5B" p-id="10507"></path><path d="M772.8 465.6m-41.6 0a41.6 41.6 0 1 0 83.2 0 41.6 41.6 0 1 0-83.2 0Z" fill="#FFFFFF" p-id="10508"></path><path d="M769.6 351.2m-56 0a56 56 0 1 0 112 0 56 56 0 1 0-112 0Z" opacity=".2" p-id="10509"></path><path d="M769.6 327.2m-56 0a56 56 0 1 0 112 0 56 56 0 1 0-112 0Z" fill="#FBD000" p-id="10510"></path><path d="M772.8 515.2c-27.2 0-49.6-22.4-49.6-49.6 0-27.2 22.4-49.6 49.6-49.6 27.2 0 49.6 22.4 49.6 49.6 0 27.2-22.4 49.6-49.6 49.6z m0-83.2c-18.4 0-33.6 15.2-33.6 33.6 0 18.4 15.2 33.6 33.6 33.6 18.4 0 33.6-15.2 33.6-33.6 0-19.2-15.2-33.6-33.6-33.6zM975.2 856H46.4c-4.8 0-8-3.2-8-8s3.2-8 8-8h928.8c4.8 0 8 3.2 8 8s-4 8-8 8z" fill="#233E49" p-id="10511"></path><path d="M816 736H192c-40 0-72-32-72-72V264c0-40 32-72 72-72h624c40 0 72 32 72 72v400c0 40-32 72-72 72zM192 208c-31.2 0-56 24.8-56 56v400c0 31.2 24.8 56 56 56h624c31.2 0 56-24.8 56-56V264c0-31.2-24.8-56-56-56H192z" fill="#233E49" p-id="10512"></path><path d="M769.6 391.2c-35.2 0-64-28.8-64-64s28.8-64 64-64 64 28.8 64 64-28.8 64-64 64z m0-112.8c-26.4 0-48 21.6-48 48s21.6 48 48 48 48-21.6 48-48-21.6-48-48-48z" fill="#233E49" p-id="10513"></path><path d="M648 592c0 26.4-21.6 48-48 48H256c-26.4 0-48-21.6-48-48V312c0-26.4 21.6-48 48-48h344c26.4 0 48 21.6 48 48v280z" fill="#3AD0F9" p-id="10514"></path><path d="M648 292c0-15.2-12.8-28-28-28h-376c-15.2 0-28 12.8-28 28s12.8 28 28 28h376c15.2 0 28-12.8 28-28z" fill="#00B3F9" p-id="10515"></path><path d="M600 648H256c-31.2 0-56-24.8-56-56V312c0-31.2 24.8-56 56-56h344c31.2 0 56 24.8 56 56v280c0 31.2-24.8 56-56 56zM256 272c-22.4 0-40 17.6-40 40v280c0 22.4 17.6 40 40 40h344c22.4 0 40-17.6 40-40V312c0-22.4-17.6-40-40-40H256z" fill="#233E49" p-id="10516"></path><path d="M672 240H272c-4.8 0-8-3.2-8-8s3.2-8 8-8h400c4.8 0 8 3.2 8 8s-3.2 8-8 8z" fill="#FFFFFF" opacity=".5" p-id="10517"></path><path d="M996 500.8c0-3.2-3.2-6.4-8-7.2l-15.2-2.4c-4-0.8-8.8-4.8-8.8-8.8l-2.4-15.2c-0.8-4-4-8-7.2-8s-6.4 3.2-7.2 8l-2.4 15.2c-0.8 4-4.8 8.8-8.8 8.8l-15.2 2.4c-4 0.8-8 4-8 7.2s3.2 6.4 8 7.2l15.2 2.4c4 0.8 8.8 4.8 8.8 8.8l2.4 15.2c0.8 4 4 8 7.2 8s6.4-3.2 6.4-8l2.4-16.8c0.8-4 4.8-8 8.8-8.8l14.4-0.8c5.6-1.6 9.6-4 9.6-7.2z" fill="#FFFFFF" p-id="10518"></path><path d="M840 608c0 17.6-14.4 32-32 32h-64c-17.6 0-32-14.4-32-32v-32c0-17.6 14.4-32 32-32h64c17.6 0 32 14.4 32 32v32z" fill="#324D5B" p-id="10519"></path><path d="M808 648h-64c-22.4 0-40-17.6-40-40v-32c0-22.4 17.6-40 40-40h64c22.4 0 40 17.6 40 40v32c0 22.4-17.6 40-40 40z m-64-96c-13.6 0-24 10.4-24 24v32c0 13.6 10.4 24 24 24h64c13.6 0 24-10.4 24-24v-32c0-13.6-10.4-24-24-24h-64z" fill="#233E49" p-id="10520"></path><path d="M744 648c-4.8 0-8-3.2-8-8V544c0-4.8 3.2-8 8-8s8 3.2 8 8v96c0 4.8-3.2 8-8 8zM776 648c-4.8 0-8-3.2-8-8V544c0-4.8 3.2-8 8-8s8 3.2 8 8v96c0 4.8-3.2 8-8 8zM808 648c-4.8 0-8-3.2-8-8V544c0-4.8 3.2-8 8-8s8 3.2 8 8v96c0 4.8-3.2 8-8 8z" fill="#233E49" p-id="10521"></path><path d="M832 616H712c-4.8 0-8-3.2-8-8s3.2-8 8-8h120c4.8 0 8 3.2 8 8s-3.2 8-8 8zM832 584H712c-4.8 0-8-3.2-8-8s3.2-8 8-8h120c4.8 0 8 3.2 8 8s-3.2 8-8 8z" fill="#233E49" p-id="10522"></path><path d="M304 464.8c-2.4 0-4-0.8-5.6-2.4-3.2-3.2-3.2-8 0-11.2L381.6 368c3.2-3.2 8-3.2 11.2 0 3.2 3.2 3.2 8 0 11.2L309.6 462.4c-1.6 1.6-3.2 2.4-5.6 2.4zM300 540.8c-2.4 0-4-0.8-5.6-2.4-3.2-3.2-3.2-8 0-11.2L477.6 344c3.2-3.2 8-3.2 11.2 0 3.2 3.2 3.2 8 0 11.2L305.6 538.4c-1.6 1.6-3.2 2.4-5.6 2.4zM452 503.2c-2.4 0-4-0.8-5.6-2.4-3.2-3.2-3.2-8 0-11.2l67.2-67.2c3.2-3.2 8-3.2 11.2 0 3.2 3.2 3.2 8 0 11.2l-67.2 67.2c-1.6 1.6-3.2 2.4-5.6 2.4zM797.6 335.2c-4.8 0-8-3.2-8-8 0-11.2-8.8-20-20-20s-20 8.8-20 20c0 4.8-3.2 8-8 8s-8-3.2-8-8c0-20 16-36 36-36s36 16 36 36c0 4-3.2 8-8 8z" fill="#FFFFFF" p-id="10523"></path><path d="M790.4 473.6c-4.8 0-8-3.2-8-8 0-5.6-4-9.6-9.6-9.6s-9.6 4-9.6 9.6c0 4.8-3.2 8-8 8s-8-3.2-8-8c0-14.4 11.2-25.6 25.6-25.6 14.4 0 25.6 11.2 25.6 25.6 0 4-4 8-8 8z" fill="#0C508E" opacity=".5" p-id="10524"></path><path d="M856 456c-4.8 0-8-3.2-8-8V278.4c0-21.6-16.8-38.4-39.2-38.4H728c-4.8 0-8-3.2-8-8s3.2-8 8-8h80.8c31.2 0 55.2 24 55.2 54.4V448c0 4.8-3.2 8-8 8z" fill="#FFFFFF" opacity=".5" p-id="10525"></path></svg>