<?xml version="1.0" standalone="no"?>
<!DOCTYPE svg PUBLIC "-//W3C//DTD SVG 20010904//EN"
 "http://www.w3.org/TR/2001/REC-SVG-20010904/DTD/svg10.dtd">
<svg version="1.0" xmlns="http://www.w3.org/2000/svg"
 width="700.000000pt" height="700.000000pt" viewBox="0 0 700.000000 700.000000"
 preserveAspectRatio="xMidYMid meet">
<metadata>
Created by potrace 1.14, written by Peter Selinger 2001-2017
</metadata>
<g transform="translate(0.000000,700.000000) scale(0.100000,-0.100000)"
fill="#000000" stroke="none">
<path d="M1510 6580 c-29 -29 -25 -48 18 -89 21 -20 241 -207 491 -416 l452
-380 -628 -5 c-617 -5 -629 -5 -686 -27 -169 -64 -283 -190 -322 -356 -13 -59
-15 -241 -13 -1509 l3 -1443 24 -60 c13 -33 37 -79 53 -103 15 -24 37 -61 48
-81 24 -48 47 -63 161 -102 93 -32 97 -33 312 -37 119 -2 217 -7 217 -10 0 -4
-52 -163 -116 -354 l-116 -348 -554 0 c-541 0 -554 0 -574 -20 -24 -24 -25
-38 -4 -68 l15 -22 3198 0 c3085 0 3198 1 3214 18 23 26 21 58 -5 76 -20 14
-92 16 -589 16 l-567 0 -116 348 c-64 191 -116 350 -116 355 0 4 72 7 160 7
87 0 183 5 212 11 183 38 339 194 377 377 8 37 11 478 11 1475 0 1567 4 1476
-62 1599 -57 106 -170 198 -293 239 -32 11 -265 15 -1130 19 l-1089 5 487 408
c267 225 489 417 492 427 14 45 -46 87 -82 59 -10 -8 -257 -213 -550 -456
l-533 -443 -332 0 -333 0 -435 366 c-565 475 -649 544 -666 544 -8 0 -23 -9
-34 -20z m3120 -1130 c24 -24 25 -38 4 -68 l-15 -22 -1385 0 c-936 0 -1392 3
-1405 10 -25 14 -26 75 -1 89 11 7 479 10 1400 11 1369 0 1382 0 1402 -20z
m1042 -8 c74 -30 160 -108 192 -175 14 -29 30 -81 36 -117 13 -83 14 -1199 1
-1233 -13 -33 -46 -43 -76 -23 l-24 16 -3 627 -3 628 -27 51 c-15 29 -44 66
-65 83 -68 56 -103 61 -444 61 -307 0 -308 0 -323 22 -21 30 -20 44 5 69 20
20 28 20 347 17 314 -3 329 -4 384 -26z m-1512 -313 c79 -17 139 -63 177 -137
l33 -64 0 -1011 c0 -666 -4 -1025 -10 -1049 -16 -57 -70 -120 -130 -153 l-55
-30 -1250 0 -1250 0 -54 30 c-29 16 -66 45 -82 64 -61 75 -59 27 -59 1135 l0
1011 24 50 c38 82 109 137 201 158 47 11 2405 7 2455 -4z m1229 -60 c146 -64
230 -234 188 -380 -35 -119 -119 -204 -234 -235 -230 -62 -446 139 -402 374
37 203 261 323 448 241z m-2 -1048 c80 -41 123 -113 123 -203 -1 -128 -100
-227 -228 -228 -150 0 -257 135 -222 282 16 66 94 149 155 166 53 15 125 8
172 -17z m-444 -2402 c93 -193 166 -353 164 -355 -2 -2 -738 -3 -1635 -2
l-1632 3 116 240 c64 132 140 291 169 353 l54 112 1298 0 1298 0 168 -351z"/>
</g>
</svg>
